<svg width="37" height="40" viewBox="0 0 37 40" fill="none" xmlns="http://www.w3.org/2000/svg">
<path d="M21.538 17.0172V38.3743C21.538 39.0106 22.2881 39.3494 22.7674 38.9309C32.0485 30.8245 34.0148 28.2706 34.9447 26.4907C35.6824 25.0788 36.0272 23.4735 36.0272 21.8804V9.30915C36.0272 7.56349 35.7793 5.77411 34.7764 4.3453C33.0741 1.92014 30.7508 0.698226 29.1467 0.216797C28.5231 0.0296564 27.8685 0 27.2174 0H8.16393C7.29196 0 6.40737 0.0472706 5.59395 0.361422C3.31884 1.2401 1.75538 3.12991 0.838173 4.76771C0.16441 5.97081 0 7.36791 0 8.74682V21.8016C0 23.8429 0.375407 25.9385 1.74792 27.4494C2.56504 28.3489 3.48687 29.1143 4.35542 29.7261C5.91501 30.8245 7.83818 31.1765 9.74579 31.1765H14.1381C14.5483 31.1765 14.8808 30.844 14.8808 30.4338V17.0172C14.8808 16.607 14.5483 16.2745 14.1381 16.2745H7.59568C7.18551 16.2745 6.853 15.942 6.853 15.5318V10.3505C6.853 9.94035 7.18551 9.60784 7.59567 9.60784H28.6273C29.0375 9.60784 29.37 9.94035 29.37 10.3505V15.5318C29.37 15.942 29.0375 16.2745 28.6273 16.2745H22.2807C21.8705 16.2745 21.538 16.607 21.538 17.0172Z" fill="#D55200"/>
</svg>
